<?xml version="1.0" encoding="utf-8"?>

<!DOCTYPE svg PUBLIC "-//W3C//DTD SVG 1.1//EN" "http://www.w3.org/Graphics/SVG/1.1/DTD/svg11.dtd">
<svg version="1.1" id="Layer_1" xmlns="http://www.w3.org/2000/svg" xmlns:xlink="http://www.w3.org/1999/xlink" x="0px" y="0px"
	 viewBox="0 0 2639.902 1596.521" enable-background="new 0 0 2639.902 1596.521" xml:space="preserve">
<g>
	<g>
		<path fill="none" stroke="#000000" stroke-width="8" stroke-miterlimit="10" d="M1743.818,374.394
			c-233.94-233.94-613.417-234.317-847.734,0c-233.94,233.94-234.317,613.417,0,847.734c233.94,233.94,613.417,234.317,847.734,0
			C1977.758,988.188,1978.135,608.711,1743.818,374.394z"/>
		<path fill="none" stroke="#000000" stroke-width="8" stroke-miterlimit="10" d="M1642.145,476.067
			c-177.824-177.824-466.276-178.111-644.388,0c-177.824,177.824-178.111,466.276,0,644.388
			c177.825,177.824,466.276,178.111,644.388,0C1819.969,942.63,1820.256,654.178,1642.145,476.067z"/>
		<g>
			
				<line fill="none" stroke="#000000" stroke-width="8" stroke-miterlimit="10" x1="1775.602" y1="798.261" x2="1642.145" y2="476.067"/>
			
				<line fill="none" stroke="#000000" stroke-width="8" stroke-miterlimit="10" x1="1775.602" y1="798.261" x2="1319.951" y2="342.61"/>
			
				<line fill="none" stroke="#000000" stroke-width="8" stroke-miterlimit="10" x1="1775.602" y1="798.261" x2="997.757" y2="476.067"/>
			
				<line fill="none" stroke="#000000" stroke-width="8" stroke-miterlimit="10" x1="1775.602" y1="798.261" x2="864.3" y2="798.261"/>
			
				<line fill="none" stroke="#000000" stroke-width="8" stroke-miterlimit="10" x1="1775.602" y1="798.261" x2="997.757" y2="1120.455"/>
			
				<line fill="none" stroke="#000000" stroke-width="8" stroke-miterlimit="10" x1="1775.602" y1="798.261" x2="1319.951" y2="1253.912"/>
			
				<line fill="none" stroke="#000000" stroke-width="8" stroke-miterlimit="10" x1="1775.602" y1="798.261" x2="1642.145" y2="1120.455"/>
			
				<line fill="none" stroke="#000000" stroke-width="8" stroke-miterlimit="10" x1="1642.145" y1="476.067" x2="1319.951" y2="342.61"/>
			
				<line fill="none" stroke="#000000" stroke-width="8" stroke-miterlimit="10" x1="1642.145" y1="476.067" x2="997.757" y2="476.067"/>
			
				<line fill="none" stroke="#000000" stroke-width="8" stroke-miterlimit="10" x1="1642.145" y1="476.067" x2="864.3" y2="798.261"/>
			
				<line fill="none" stroke="#000000" stroke-width="8" stroke-miterlimit="10" x1="1642.145" y1="476.067" x2="997.757" y2="1120.455"/>
			
				<line fill="none" stroke="#000000" stroke-width="8" stroke-miterlimit="10" x1="1642.145" y1="476.067" x2="1319.951" y2="1253.912"/>
			
				<line fill="none" stroke="#000000" stroke-width="8" stroke-miterlimit="10" x1="1642.145" y1="476.067" x2="1642.145" y2="1120.455"/>
			
				<line fill="none" stroke="#000000" stroke-width="8" stroke-miterlimit="10" x1="1319.951" y1="342.61" x2="997.757" y2="476.067"/>
			
				<line fill="none" stroke="#000000" stroke-width="8" stroke-miterlimit="10" x1="1319.951" y1="342.61" x2="864.3" y2="798.261"/>
			
				<line fill="none" stroke="#000000" stroke-width="8" stroke-miterlimit="10" x1="1319.951" y1="342.61" x2="997.757" y2="1120.455"/>
			
				<line fill="none" stroke="#000000" stroke-width="8" stroke-miterlimit="10" x1="1319.951" y1="342.61" x2="1319.951" y2="1253.912"/>
			
				<line fill="none" stroke="#000000" stroke-width="8" stroke-miterlimit="10" x1="1319.951" y1="342.61" x2="1642.145" y2="1120.455"/>
			
				<line fill="none" stroke="#000000" stroke-width="8" stroke-miterlimit="10" x1="997.757" y1="476.067" x2="864.3" y2="798.261"/>
			
				<line fill="none" stroke="#000000" stroke-width="8" stroke-miterlimit="10" x1="997.757" y1="476.067" x2="997.757" y2="1120.455"/>
			
				<line fill="none" stroke="#000000" stroke-width="8" stroke-miterlimit="10" x1="997.757" y1="476.067" x2="1319.951" y2="1253.912"/>
			
				<line fill="none" stroke="#000000" stroke-width="8" stroke-miterlimit="10" x1="997.757" y1="476.067" x2="1642.145" y2="1120.455"/>
			
				<line fill="none" stroke="#000000" stroke-width="8" stroke-miterlimit="10" x1="864.3" y1="798.261" x2="997.757" y2="1120.455"/>
			
				<line fill="none" stroke="#000000" stroke-width="8" stroke-miterlimit="10" x1="864.3" y1="798.261" x2="1319.951" y2="1253.912"/>
			
				<line fill="none" stroke="#000000" stroke-width="8" stroke-miterlimit="10" x1="864.3" y1="798.261" x2="1642.145" y2="1120.455"/>
			
				<line fill="none" stroke="#000000" stroke-width="8" stroke-miterlimit="10" x1="997.757" y1="1120.455" x2="1319.951" y2="1253.912"/>
			
				<line fill="none" stroke="#000000" stroke-width="8" stroke-miterlimit="10" x1="997.757" y1="1120.455" x2="1642.145" y2="1120.455"/>
			
				<line fill="none" stroke="#000000" stroke-width="8" stroke-miterlimit="10" x1="1319.951" y1="1253.912" x2="1642.145" y2="1120.455"/>
		</g>
		<g>
			
				<line fill="none" stroke="#000000" stroke-width="8" stroke-miterlimit="10" x1="1919.389" y1="798.261" x2="1743.818" y2="374.394"/>
			
				<line fill="none" stroke="#000000" stroke-width="8" stroke-miterlimit="10" x1="1919.389" y1="798.261" x2="1319.951" y2="198.822"/>
			
				<line fill="none" stroke="#000000" stroke-width="8" stroke-miterlimit="10" x1="1919.389" y1="798.261" x2="896.084" y2="374.394"/>
			
				<line fill="none" stroke="#000000" stroke-width="8" stroke-miterlimit="10" x1="1919.389" y1="798.261" x2="720.513" y2="798.261"/>
			
				<line fill="none" stroke="#000000" stroke-width="8" stroke-miterlimit="10" x1="1919.389" y1="798.261" x2="896.084" y2="1222.128"/>
			
				<line fill="none" stroke="#000000" stroke-width="8" stroke-miterlimit="10" x1="1919.389" y1="798.261" x2="1319.951" y2="1397.699"/>
			
				<line fill="none" stroke="#000000" stroke-width="8" stroke-miterlimit="10" x1="1919.389" y1="798.261" x2="1743.818" y2="1222.128"/>
			
				<line fill="none" stroke="#000000" stroke-width="8" stroke-miterlimit="10" x1="1743.818" y1="374.394" x2="1319.951" y2="198.822"/>
			
				<line fill="none" stroke="#000000" stroke-width="8" stroke-miterlimit="10" x1="1743.818" y1="374.394" x2="896.084" y2="374.394"/>
			
				<line fill="none" stroke="#000000" stroke-width="8" stroke-miterlimit="10" x1="1743.818" y1="374.394" x2="720.513" y2="798.261"/>
			
				<line fill="none" stroke="#000000" stroke-width="8" stroke-miterlimit="10" x1="1743.818" y1="374.394" x2="896.084" y2="1222.128"/>
			
				<line fill="none" stroke="#000000" stroke-width="8" stroke-miterlimit="10" x1="1743.818" y1="374.394" x2="1319.951" y2="1397.699"/>
			
				<line fill="none" stroke="#000000" stroke-width="8" stroke-miterlimit="10" x1="1743.818" y1="374.394" x2="1743.818" y2="1222.128"/>
			
				<line fill="none" stroke="#000000" stroke-width="8" stroke-miterlimit="10" x1="1319.951" y1="198.822" x2="896.084" y2="374.394"/>
			
				<line fill="none" stroke="#000000" stroke-width="8" stroke-miterlimit="10" x1="1319.951" y1="198.822" x2="720.513" y2="798.261"/>
			
				<line fill="none" stroke="#000000" stroke-width="8" stroke-miterlimit="10" x1="1319.951" y1="198.822" x2="896.084" y2="1222.128"/>
			
				<line fill="none" stroke="#000000" stroke-width="8" stroke-miterlimit="10" x1="1319.951" y1="198.822" x2="1319.951" y2="1397.699"/>
			
				<line fill="none" stroke="#000000" stroke-width="8" stroke-miterlimit="10" x1="1319.951" y1="198.822" x2="1743.818" y2="1222.128"/>
			
				<line fill="none" stroke="#000000" stroke-width="8" stroke-miterlimit="10" x1="896.084" y1="374.394" x2="720.513" y2="798.261"/>
			
				<line fill="none" stroke="#000000" stroke-width="8" stroke-miterlimit="10" x1="896.084" y1="374.394" x2="896.084" y2="1222.128"/>
			
				<line fill="none" stroke="#000000" stroke-width="8" stroke-miterlimit="10" x1="896.084" y1="374.394" x2="1319.951" y2="1397.699"/>
			
				<line fill="none" stroke="#000000" stroke-width="8" stroke-miterlimit="10" x1="896.084" y1="374.394" x2="1743.818" y2="1222.128"/>
			
				<line fill="none" stroke="#000000" stroke-width="8" stroke-miterlimit="10" x1="720.513" y1="798.261" x2="896.084" y2="1222.128"/>
			
				<line fill="none" stroke="#000000" stroke-width="8" stroke-miterlimit="10" x1="720.513" y1="798.261" x2="1319.951" y2="1397.699"/>
			
				<line fill="none" stroke="#000000" stroke-width="8" stroke-miterlimit="10" x1="720.513" y1="798.261" x2="1743.818" y2="1222.128"/>
			
				<line fill="none" stroke="#000000" stroke-width="8" stroke-miterlimit="10" x1="896.084" y1="1222.128" x2="1319.951" y2="1397.699"/>
			
				<line fill="none" stroke="#000000" stroke-width="8" stroke-miterlimit="10" x1="896.084" y1="1222.128" x2="1743.818" y2="1222.128"/>
			
				<line fill="none" stroke="#000000" stroke-width="8" stroke-miterlimit="10" x1="1319.951" y1="1397.699" x2="1743.818" y2="1222.128"/>
		</g>
	</g>
	<g>
		<g>
			<path fill="none" stroke="#000000" stroke-width="3" stroke-miterlimit="10" d="M826.543,1439.285
				c-317.005-117.028-584.034-344.917-750.159-641.151c442.373-788.841,1490.798-967.5,2169.12-387.363
				c127.448,109,235.431,240.1,318.015,387.363C2215.999,1417.831,1475.27,1678.774,826.543,1439.285z"/>
		</g>
		<g>
			
				<line fill="none" stroke="#000000" stroke-width="3" stroke-miterlimit="10" x1="2245.503" y1="1185.497" x2="1813.36" y2="1439.285"/>
			
				<line fill="none" stroke="#000000" stroke-width="3" stroke-miterlimit="10" x1="2245.503" y1="1185.497" x2="1319.951" y2="1527.036"/>
			
				<line fill="none" stroke="#000000" stroke-width="3" stroke-miterlimit="10" x1="2245.503" y1="1185.497" x2="826.543" y2="1439.285"/>
			
				<line fill="none" stroke="#000000" stroke-width="3" stroke-miterlimit="10" x1="2245.503" y1="1185.497" x2="394.399" y2="1185.497"/>
			
				<line fill="none" stroke="#000000" stroke-width="3" stroke-miterlimit="10" x1="2245.503" y1="1185.497" x2="76.384" y2="798.134"/>
			
				<line fill="none" stroke="#000000" stroke-width="3" stroke-miterlimit="10" x1="2245.503" y1="1185.497" x2="394.399" y2="410.77"/>
			
				<line fill="none" stroke="#000000" stroke-width="3" stroke-miterlimit="10" x1="2245.503" y1="1185.497" x2="826.543" y2="156.983"/>
			
				<line fill="none" stroke="#000000" stroke-width="3" stroke-miterlimit="10" x1="2245.503" y1="1185.497" x2="1319.951" y2="69.231"/>
			
				<line fill="none" stroke="#000000" stroke-width="3" stroke-miterlimit="10" x1="2245.503" y1="1185.497" x2="1813.36" y2="156.983"/>
			
				<line fill="none" stroke="#000000" stroke-width="3" stroke-miterlimit="10" x1="2245.503" y1="1185.497" x2="2245.503" y2="410.77"/>
			
				<line fill="none" stroke="#000000" stroke-width="3" stroke-miterlimit="10" x1="2245.503" y1="1185.497" x2="2563.519" y2="798.134"/>
			
				<line fill="none" stroke="#000000" stroke-width="3" stroke-miterlimit="10" x1="1813.36" y1="1439.285" x2="1319.951" y2="1527.036"/>
			
				<line fill="none" stroke="#000000" stroke-width="3" stroke-miterlimit="10" x1="1813.36" y1="1439.285" x2="826.543" y2="1439.285"/>
			
				<line fill="none" stroke="#000000" stroke-width="3" stroke-miterlimit="10" x1="1813.36" y1="1439.285" x2="394.399" y2="1185.497"/>
			
				<line fill="none" stroke="#000000" stroke-width="3" stroke-miterlimit="10" x1="1813.36" y1="1439.285" x2="76.384" y2="798.134"/>
			
				<line fill="none" stroke="#000000" stroke-width="3" stroke-miterlimit="10" x1="1813.36" y1="1439.285" x2="394.399" y2="410.77"/>
			
				<line fill="none" stroke="#000000" stroke-width="3" stroke-miterlimit="10" x1="1813.36" y1="1439.285" x2="826.543" y2="156.983"/>
			
				<line fill="none" stroke="#000000" stroke-width="3" stroke-miterlimit="10" x1="1813.36" y1="1439.285" x2="1319.951" y2="69.231"/>
			
				<line fill="none" stroke="#000000" stroke-width="3" stroke-miterlimit="10" x1="1813.36" y1="1439.285" x2="1813.36" y2="156.983"/>
			
				<line fill="none" stroke="#000000" stroke-width="3" stroke-miterlimit="10" x1="1813.36" y1="1439.285" x2="2245.503" y2="410.77"/>
			
				<line fill="none" stroke="#000000" stroke-width="3" stroke-miterlimit="10" x1="1813.36" y1="1439.285" x2="2563.519" y2="798.134"/>
			
				<line fill="none" stroke="#000000" stroke-width="3" stroke-miterlimit="10" x1="1319.951" y1="1527.036" x2="826.543" y2="1439.285"/>
			
				<line fill="none" stroke="#000000" stroke-width="3" stroke-miterlimit="10" x1="1319.951" y1="1527.036" x2="394.399" y2="1185.497"/>
			
				<line fill="none" stroke="#000000" stroke-width="3" stroke-miterlimit="10" x1="1319.951" y1="1527.036" x2="76.384" y2="798.134"/>
			
				<line fill="none" stroke="#000000" stroke-width="3" stroke-miterlimit="10" x1="1319.951" y1="1527.036" x2="394.399" y2="410.77"/>
			
				<line fill="none" stroke="#000000" stroke-width="3" stroke-miterlimit="10" x1="1319.951" y1="1527.036" x2="826.543" y2="156.983"/>
			
				<line fill="none" stroke="#000000" stroke-width="3" stroke-miterlimit="10" x1="1319.951" y1="1527.036" x2="1319.951" y2="69.231"/>
			
				<line fill="none" stroke="#000000" stroke-width="3" stroke-miterlimit="10" x1="1319.951" y1="1527.036" x2="1813.36" y2="156.983"/>
			
				<line fill="none" stroke="#000000" stroke-width="3" stroke-miterlimit="10" x1="1319.951" y1="1527.036" x2="2245.503" y2="410.77"/>
			
				<line fill="none" stroke="#000000" stroke-width="3" stroke-miterlimit="10" x1="1319.951" y1="1527.036" x2="2563.519" y2="798.134"/>
			
				<line fill="none" stroke="#000000" stroke-width="3" stroke-miterlimit="10" x1="826.543" y1="1439.285" x2="394.399" y2="1185.497"/>
			
				<line fill="none" stroke="#000000" stroke-width="3" stroke-miterlimit="10" x1="826.543" y1="1439.285" x2="76.384" y2="798.134"/>
			
				<line fill="none" stroke="#000000" stroke-width="3" stroke-miterlimit="10" x1="826.543" y1="1439.285" x2="394.399" y2="410.77"/>
			
				<line fill="none" stroke="#000000" stroke-width="3" stroke-miterlimit="10" x1="826.543" y1="1439.285" x2="826.543" y2="156.983"/>
			
				<line fill="none" stroke="#000000" stroke-width="3" stroke-miterlimit="10" x1="826.543" y1="1439.285" x2="1319.951" y2="69.231"/>
			
				<line fill="none" stroke="#000000" stroke-width="3" stroke-miterlimit="10" x1="826.543" y1="1439.285" x2="1813.36" y2="156.983"/>
			
				<line fill="none" stroke="#000000" stroke-width="3" stroke-miterlimit="10" x1="826.543" y1="1439.285" x2="2245.503" y2="410.77"/>
			
				<line fill="none" stroke="#000000" stroke-width="3" stroke-miterlimit="10" x1="826.543" y1="1439.285" x2="2563.519" y2="798.134"/>
			
				<line fill="none" stroke="#000000" stroke-width="3" stroke-miterlimit="10" x1="394.399" y1="1185.497" x2="76.384" y2="798.134"/>
			
				<line fill="none" stroke="#000000" stroke-width="3" stroke-miterlimit="10" x1="394.399" y1="1185.497" x2="394.399" y2="410.77"/>
			
				<line fill="none" stroke="#000000" stroke-width="3" stroke-miterlimit="10" x1="394.399" y1="1185.497" x2="826.543" y2="156.983"/>
			
				<line fill="none" stroke="#000000" stroke-width="3" stroke-miterlimit="10" x1="394.399" y1="1185.497" x2="1319.951" y2="69.231"/>
			
				<line fill="none" stroke="#000000" stroke-width="3" stroke-miterlimit="10" x1="394.399" y1="1185.497" x2="1813.36" y2="156.983"/>
			
				<line fill="none" stroke="#000000" stroke-width="3" stroke-miterlimit="10" x1="394.399" y1="1185.497" x2="2245.503" y2="410.77"/>
			
				<line fill="none" stroke="#000000" stroke-width="3" stroke-miterlimit="10" x1="394.399" y1="1185.497" x2="2563.519" y2="798.134"/>
			
				<line fill="none" stroke="#000000" stroke-width="3" stroke-miterlimit="10" x1="76.384" y1="798.134" x2="394.399" y2="410.77"/>
			
				<line fill="none" stroke="#000000" stroke-width="3" stroke-miterlimit="10" x1="76.384" y1="798.134" x2="826.543" y2="156.983"/>
			
				<line fill="none" stroke="#000000" stroke-width="3" stroke-miterlimit="10" x1="76.384" y1="798.134" x2="1319.951" y2="69.231"/>
			
				<line fill="none" stroke="#000000" stroke-width="3" stroke-miterlimit="10" x1="76.384" y1="798.134" x2="1813.36" y2="156.983"/>
			
				<line fill="none" stroke="#000000" stroke-width="3" stroke-miterlimit="10" x1="76.384" y1="798.134" x2="2245.503" y2="410.77"/>
			
				<line fill="none" stroke="#000000" stroke-width="3" stroke-miterlimit="10" x1="76.384" y1="798.134" x2="2563.519" y2="798.134"/>
			
				<line fill="none" stroke="#000000" stroke-width="3" stroke-miterlimit="10" x1="394.399" y1="410.77" x2="826.543" y2="156.983"/>
			
				<line fill="none" stroke="#000000" stroke-width="3" stroke-miterlimit="10" x1="394.399" y1="410.77" x2="1319.951" y2="69.231"/>
			
				<line fill="none" stroke="#000000" stroke-width="3" stroke-miterlimit="10" x1="394.399" y1="410.77" x2="1813.36" y2="156.983"/>
			
				<line fill="none" stroke="#000000" stroke-width="3" stroke-miterlimit="10" x1="394.399" y1="410.77" x2="2245.503" y2="410.77"/>
			
				<line fill="none" stroke="#000000" stroke-width="3" stroke-miterlimit="10" x1="394.399" y1="410.77" x2="2563.519" y2="798.134"/>
			
				<line fill="none" stroke="#000000" stroke-width="3" stroke-miterlimit="10" x1="826.543" y1="156.983" x2="1319.951" y2="69.231"/>
			
				<line fill="none" stroke="#000000" stroke-width="3" stroke-miterlimit="10" x1="826.543" y1="156.983" x2="1813.36" y2="156.983"/>
			
				<line fill="none" stroke="#000000" stroke-width="3" stroke-miterlimit="10" x1="826.543" y1="156.983" x2="2245.503" y2="410.77"/>
			
				<line fill="none" stroke="#000000" stroke-width="3" stroke-miterlimit="10" x1="826.543" y1="156.983" x2="2563.519" y2="798.134"/>
			
				<line fill="none" stroke="#000000" stroke-width="3" stroke-miterlimit="10" x1="1319.951" y1="69.231" x2="1813.36" y2="156.983"/>
			
				<line fill="none" stroke="#000000" stroke-width="3" stroke-miterlimit="10" x1="1319.951" y1="69.231" x2="2245.503" y2="410.77"/>
			
				<line fill="none" stroke="#000000" stroke-width="3" stroke-miterlimit="10" x1="1319.951" y1="69.231" x2="2563.519" y2="798.134"/>
			
				<line fill="none" stroke="#000000" stroke-width="3" stroke-miterlimit="10" x1="1813.36" y1="156.983" x2="2245.503" y2="410.77"/>
			
				<line fill="none" stroke="#000000" stroke-width="3" stroke-miterlimit="10" x1="1813.36" y1="156.983" x2="2563.519" y2="798.134"/>
			
				<line fill="none" stroke="#000000" stroke-width="3" stroke-miterlimit="10" x1="2245.503" y1="410.77" x2="2563.519" y2="798.134"/>
		</g>
	</g>
	<g>
		<circle cx="1775.602" cy="798.261" r="36.433"/>
		<circle cx="1642.145" cy="476.067" r="36.433"/>
		<circle cx="1319.951" cy="342.61" r="36.433"/>
		<circle cx="997.757" cy="476.067" r="36.433"/>
		<circle cx="864.3" cy="798.261" r="36.433"/>
		<circle cx="997.757" cy="1120.454" r="36.433"/>
		<circle cx="1642.145" cy="1120.454" r="36.433"/>
		<circle cx="1319.951" cy="1253.912" r="36.433"/>
		<circle cx="1919.389" cy="798.261" r="36.433"/>
		<circle cx="1743.818" cy="374.394" r="36.433"/>
		<circle cx="1319.951" cy="198.822" r="36.433"/>
		<circle cx="896.084" cy="374.394" r="36.433"/>
		<circle cx="720.513" cy="798.261" r="36.433"/>
		<circle cx="896.084" cy="1222.128" r="36.433"/>
		<circle cx="1743.818" cy="1222.128" r="36.433"/>
		<circle cx="1319.951" cy="1397.699" r="36.433"/>
		<circle cx="2245.503" cy="1185.624" r="36.433"/>
		<circle cx="1813.359" cy="1439.412" r="36.433"/>
		<circle cx="1319.951" cy="1527.163" r="36.433"/>
		<circle cx="826.543" cy="1439.412" r="36.433"/>
		<circle cx="394.399" cy="1185.624" r="36.433"/>
		<circle cx="76.384" cy="798.261" r="36.433"/>
		<circle cx="394.399" cy="410.897" r="36.433"/>
		<circle cx="826.543" cy="157.11" r="36.433"/>
		<circle cx="1319.951" cy="69.358" r="36.433"/>
		<circle cx="1813.359" cy="157.11" r="36.433"/>
		<circle cx="2563.519" cy="798.261" r="36.433"/>
		<circle cx="2245.503" cy="410.897" r="36.433"/>
	</g>
</g>
</svg>
