<?xml version="1.0" encoding="utf-8"?>
<!-- Generator: Adobe Illustrator 19.2.1, SVG Export Plug-In . SVG Version: 6.00 Build 0)  -->
<svg version="1.1" id="Ebene_1" xmlns="http://www.w3.org/2000/svg" xmlns:xlink="http://www.w3.org/1999/xlink" x="0px" y="0px"
	 viewBox="0 0 259.9 234.9" style="enable-background:new 0 0 259.9 234.9;" xml:space="preserve">
<style type="text/css">
	.st0{clip-path:url(#SVGID_2_);fill:url(#SVGID_3_);stroke:grey;stroke-width:1;stroke-miterlimit:4;}
	.st1{fill:none;stroke:grey;stroke-width:0.7;stroke-linejoin:bevel;stroke-miterlimit:4;}
	.st2{fill:none;stroke:grey;stroke-width:0.7;stroke-miterlimit:4;}
	.st3{fill:none;stroke:grey;stroke-width:0.535;stroke-miterlimit:4;}
	.st4{fill:none;stroke:grey;stroke-width:0.239;stroke-miterlimit:4;}
	.st5{fill:grey;}
</style>
<g>
	<defs>
		<rect id="SVGID_1_" x="-45.4" y="-51.2" width="495.4" height="466.1"/>
	</defs>
	<clipPath id="SVGID_2_">
		<use xlink:href="#SVGID_1_"  style="overflow:visible;"/>
	</clipPath>
	<rect x="-71.5" y="-70.1" class="st0" width="965.4" height="748.7"/>
</g>
<g>
	<line class="st1" x1="88.4" y1="137.2" x2="432" y2="38.6"/>
	<line class="st1" x1="88.7" y1="153.2" x2="420.2" y2="39.2"/>
	<line class="st1" x1="88.9" y1="169.2" x2="408.3" y2="39.8"/>
	<line class="st1" x1="89.2" y1="185.2" x2="396.4" y2="40.4"/>
	<line class="st1" x1="89.4" y1="201.2" x2="384.5" y2="40.9"/>
	<line class="st1" x1="89.7" y1="217.3" x2="372.7" y2="41.5"/>
	<line class="st1" x1="89.9" y1="233.3" x2="360.8" y2="42.1"/>
	<line class="st1" x1="90.1" y1="249.3" x2="348.9" y2="42.6"/>
	<line class="st1" x1="90.4" y1="265.3" x2="337.1" y2="43.2"/>
	<line class="st1" x1="90.6" y1="281.3" x2="325.2" y2="43.8"/>
	<line class="st1" x1="90.9" y1="297.4" x2="313.3" y2="44.3"/>
	<line class="st1" x1="91.1" y1="313.4" x2="301.4" y2="44.9"/>
	<line class="st1" x1="91.4" y1="329.4" x2="289.6" y2="45.5"/>
	<line class="st1" x1="91.6" y1="345.4" x2="277.7" y2="46"/>
	<line class="st1" x1="91.8" y1="361.5" x2="265.8" y2="46.6"/>
	<line class="st1" x1="92.1" y1="377.5" x2="254" y2="47.2"/>
	<line class="st1" x1="92.3" y1="393.5" x2="242.1" y2="47.7"/>
	<line class="st1" x1="92.6" y1="409.5" x2="230.2" y2="48.3"/>
	<line class="st1" x1="92.8" y1="425.5" x2="218.3" y2="48.9"/>
	<line class="st1" x1="93.1" y1="441.6" x2="206.5" y2="49.4"/>
	<line class="st1" x1="93.3" y1="457.6" x2="194.6" y2="50"/>
	<line class="st1" x1="93.5" y1="473.6" x2="182.7" y2="50.6"/>
	<line class="st1" x1="93.8" y1="489.6" x2="170.9" y2="51.2"/>
	<line class="st1" x1="94" y1="505.6" x2="159" y2="51.7"/>
	<line class="st1" x1="94.3" y1="521.7" x2="147.1" y2="52.3"/>
	<line class="st1" x1="94.5" y1="537.7" x2="135.2" y2="52.9"/>
	<line class="st1" x1="94.8" y1="553.7" x2="123.4" y2="53.4"/>
	<line class="st1" x1="95" y1="569.7" x2="111.5" y2="54"/>
	<line class="st1" x1="95.2" y1="585.7" x2="99.6" y2="54.6"/>
	<line class="st1" x1="95.5" y1="601.8" x2="87.7" y2="55.1"/>
</g>
<g>
	<line class="st2" x1="134.9" y1="64.8" x2="417.8" y2="42.6"/>
	<line class="st2" x1="133.5" y1="80" x2="399.9" y2="47.8"/>
	<line class="st2" x1="132" y1="95.2" x2="382.1" y2="52.9"/>
	<line class="st2" x1="130.5" y1="110.4" x2="364.2" y2="58.1"/>
</g>
<g>
	<line class="st3" x1="87.5" y1="55.1" x2="-32" y2="-55.1"/>
	<line class="st3" x1="87.8" y1="71.7" x2="-28.4" y2="-51.8"/>
	<line class="st3" x1="88" y1="88.3" x2="-24.8" y2="-48.5"/>
	<line class="st3" x1="88.3" y1="104.8" x2="-21.1" y2="-45.1"/>
	<line class="st3" x1="88.5" y1="121.4" x2="-17.5" y2="-41.8"/>
	<line class="st3" x1="88.8" y1="137.9" x2="-13.9" y2="-38.4"/>
	<line class="st3" x1="89" y1="154.5" x2="-10.3" y2="-35.1"/>
	<line class="st3" x1="89.3" y1="171.1" x2="-6.7" y2="-31.7"/>
	<line class="st3" x1="89.5" y1="187.6" x2="-3" y2="-28.4"/>
	<line class="st3" x1="89.8" y1="204.2" x2="0.6" y2="-25.1"/>
	<line class="st3" x1="90" y1="220.7" x2="4.2" y2="-21.7"/>
	<line class="st3" x1="90.3" y1="237.3" x2="7.8" y2="-18.4"/>
	<line class="st3" x1="90.5" y1="253.9" x2="11.5" y2="-15"/>
	<line class="st3" x1="90.8" y1="270.4" x2="15.1" y2="-11.7"/>
	<line class="st3" x1="91" y1="287" x2="18.7" y2="-8.4"/>
	<line class="st3" x1="91.3" y1="303.5" x2="22.3" y2="-5"/>
	<line class="st3" x1="91.5" y1="320.1" x2="25.9" y2="-1.7"/>
	<line class="st3" x1="91.8" y1="336.7" x2="29.6" y2="1.7"/>
	<line class="st3" x1="92" y1="353.2" x2="33.2" y2="5"/>
	<line class="st3" x1="92.3" y1="369.8" x2="36.8" y2="8.4"/>
	<line class="st3" x1="92.5" y1="386.3" x2="40.4" y2="11.7"/>
	<line class="st3" x1="92.8" y1="402.9" x2="44" y2="15"/>
	<line class="st3" x1="93" y1="419.5" x2="47.7" y2="18.4"/>
	<line class="st3" x1="93.3" y1="436" x2="51.3" y2="21.7"/>
	<line class="st3" x1="93.5" y1="452.6" x2="54.9" y2="25.1"/>
	<line class="st3" x1="93.8" y1="469.1" x2="58.5" y2="28.4"/>
	<line class="st3" x1="94" y1="485.7" x2="62.2" y2="31.7"/>
	<line class="st3" x1="94.3" y1="502.3" x2="65.8" y2="35.1"/>
	<line class="st3" x1="94.5" y1="518.8" x2="69.4" y2="38.4"/>
	<line class="st3" x1="94.8" y1="535.4" x2="73" y2="41.8"/>
	<line class="st3" x1="95" y1="551.9" x2="76.6" y2="45.1"/>
	<line class="st3" x1="95.3" y1="568.5" x2="80.3" y2="48.5"/>
	<line class="st3" x1="95.5" y1="585.1" x2="83.9" y2="51.8"/>
	<line class="st3" x1="95.8" y1="601.6" x2="87.5" y2="55.1"/>
</g>
<g>
	<line class="st4" x1="87.5" y1="55.1" x2="432.3" y2="38.4"/>
	<line class="st4" x1="83.4" y1="51.3" x2="420.4" y2="39"/>
	<line class="st4" x1="79.3" y1="47.5" x2="408.5" y2="39.6"/>
	<line class="st4" x1="75.1" y1="43.7" x2="396.7" y2="40.2"/>
	<line class="st4" x1="71" y1="39.9" x2="384.8" y2="40.7"/>
	<line class="st4" x1="66.9" y1="36.1" x2="372.9" y2="41.3"/>
	<line class="st4" x1="62.8" y1="32.3" x2="361" y2="41.9"/>
	<line class="st4" x1="58.7" y1="28.5" x2="349.1" y2="42.5"/>
	<line class="st4" x1="54.5" y1="24.7" x2="337.2" y2="43"/>
	<line class="st4" x1="50.4" y1="20.9" x2="325.3" y2="43.6"/>
	<line class="st4" x1="46.3" y1="17.1" x2="313.4" y2="44.2"/>
	<line class="st4" x1="42.2" y1="13.3" x2="301.5" y2="44.8"/>
	<line class="st4" x1="38.1" y1="9.5" x2="289.6" y2="45.4"/>
	<line class="st4" x1="33.9" y1="5.7" x2="277.7" y2="45.9"/>
	<line class="st4" x1="29.8" y1="1.9" x2="265.9" y2="46.5"/>
	<line class="st4" x1="25.7" y1="-1.9" x2="254" y2="47.1"/>
	<line class="st4" x1="21.6" y1="-5.7" x2="242.1" y2="47.7"/>
	<line class="st4" x1="17.4" y1="-9.5" x2="230.2" y2="48.2"/>
	<line class="st4" x1="13.3" y1="-13.3" x2="218.3" y2="48.8"/>
	<line class="st4" x1="9.2" y1="-17.1" x2="206.4" y2="49.4"/>
	<line class="st4" x1="5.1" y1="-20.9" x2="194.5" y2="50"/>
	<line class="st4" x1="1" y1="-24.7" x2="182.6" y2="50.5"/>
	<line class="st4" x1="-3.2" y1="-28.5" x2="170.7" y2="51.1"/>
	<line class="st4" x1="-7.3" y1="-32.3" x2="158.8" y2="51.7"/>
	<line class="st4" x1="-11.4" y1="-36.1" x2="147" y2="52.3"/>
	<line class="st4" x1="-15.5" y1="-39.9" x2="135.1" y2="52.8"/>
	<line class="st4" x1="-19.6" y1="-43.7" x2="123.2" y2="53.4"/>
	<line class="st4" x1="-23.8" y1="-47.5" x2="111.3" y2="54"/>
	<line class="st4" x1="-27.9" y1="-51.3" x2="99.4" y2="54.6"/>
	<line class="st4" x1="-32" y1="-55.1" x2="87.5" y2="55.1"/>
</g>
<path id="path4" class="st5" d="M95.8,90.6l5.1-0.6c0.5-0.1,0.8,0.3,1.1,1.4l0.9,4.5
	c0.4,0.4,1.5,0.6,1.6,0.3c0,0-0.1-3.6-0.2-5.5c0-0.4-0.6-1.1-1.1-1.2l-6.1-0.6L95.8,90.6z M101.7,94L95.3,95l-0.1-0.5l6.2-1
	c0.4-0.1,0-3-0.5-3l-8,1c-0.4,0.1-2.1,0.8-2,1.2l0.2,1.7c0,0.4,0.5,0.5,0.6,1.1c0.1,0.5-1.2,1.1-1.1,1.6l0.3,1.7
	c0.1,0.5,1.1,0.5,1.2,1.1c0.1,0.5-0.3,0.8-0.2,1.2l0.3,1.3c0.1,0.5,1.3,0.6,1.5,1.1c0.2,0.5-0.2,0.8,0,1.2l0.6,1.1
	c0.1,0.3,1.9,0.2,2.2,0.1l5.6-1.7c0.3-0.1-0.1-2.3-0.4-2.3l-5.2,1.1l-0.1-0.5l6.2-1.3c0.3-0.1-0.1-2.9-0.5-2.9c-2.1,0.4-6.3,1-6.3,1
	L96,98.8l6.4-1.1C102.7,97.6,102.1,94,101.7,94L101.7,94z"/>
<path id="path4_1_" class="st5" d="M121.9,89.6l-6.1,0.6c-0.5,0-1.1,0.8-1.1,1.2
	c-0.1,1.9-0.2,5.5-0.2,5.5c0.1,0.3,1.2,0.1,1.6-0.3l0.9-4.5c0.2-1.1,0.6-1.4,1.1-1.4l5.1,0.6L121.9,89.6z M117.3,94.9
	c-0.4-0.1-0.9,3.5-0.6,3.6l6.4,1.1l-0.1,0.5c0,0-4.2-0.7-6.3-1c-0.3-0.1-0.8,2.8-0.5,2.9l6.2,1.3l-0.1,0.5l-5.2-1.1
	c-0.3-0.1-0.7,2.2-0.4,2.3l5.6,1.7c0.3,0.1,2.1,0.1,2.2-0.1l0.6-1.1c0.2-0.4-0.1-0.7,0-1.2c0.2-0.5,1.4-0.6,1.5-1.1l0.3-1.3
	c0.1-0.4-0.4-0.7-0.2-1.2c0.1-0.5,1.1-0.6,1.2-1.1l0.3-1.7c0.1-0.5-1.1-1.1-1.1-1.6c0.1-0.6,0.5-0.7,0.6-1.1l0.2-1.7
	c0-0.3-1.6-1.1-2-1.2l-8-1c-0.4-0.1-0.8,2.9-0.5,3l6.2,1l-0.1,0.5L117.3,94.9L117.3,94.9z"/>
</svg>
